<?xml version="1.0"?>
<svg xmlns="http://www.w3.org/2000/svg" xmlns:xlink="http://www.w3.org/1999/xlink" version="1.1" id="Capa_1" x="0px" y="0px" viewBox="0 0 512 512" style="enable-background:new 0 0 512 512;" xml:space="preserve" width="512px" height="512px" class=""><g><g>
	<g>
		<path d="M304,0h-96C152.192,0,99.968,21.696,61.056,60.96C21.696,99.968,0,152.192,0,208c0,109.312,84.736,199.2,192,207.392V496    c0,6.592,4.064,12.512,10.176,14.912c1.92,0.736,3.872,1.088,5.824,1.088c4.416,0,8.704-1.824,11.776-5.184L303.04,416H304    c55.808,0,108.032-21.696,146.944-60.96C490.304,316.032,512,263.808,512,208C512,93.312,418.688,0,304,0z M428.32,332.416    C395.36,365.696,351.232,384,304,384h-8c-4.512,0-8.736,1.888-11.776,5.184L224,454.848V400c0-8.832-7.168-16-16-16    c-97.024,0-176-78.944-176-176c0-47.2,18.304-91.36,51.68-124.416C116.64,50.304,160.768,32,208,32h96    c97.024,0,176,78.944,176,176C480,255.2,461.696,299.36,428.32,332.416z" data-original="#000000" class="active-path" data-old_color="#000000" fill="#FFFFFF"/>
	</g>
</g></g> </svg>
